<svg version="1.1" viewBox="0.0 0.0 839.3910761154856 734.5853018372703" fill="none" stroke="none" stroke-linecap="square" stroke-miterlimit="10" xmlns:xlink="http://www.w3.org/1999/xlink" xmlns="http://www.w3.org/2000/svg"><clipPath id="p.0"><path d="m0 0l839.39105 0l0 734.5853l-839.39105 0l0 -734.5853z" clip-rule="nonzero"/></clipPath><g clip-path="url(#p.0)"><path fill="#000000" fill-opacity="0.0" d="m0 0l839.39105 0l0 734.5853l-839.39105 0z" fill-rule="evenodd"/><path fill="#000000" fill-opacity="0.0" d="m14.342502 367.29135l175.58269 -351.1652l459.54333 0l175.58264 351.1652l-175.58264 351.1652l-459.54333 0z" fill-rule="evenodd"/><path stroke="#000000" stroke-width="24.0" stroke-linejoin="round" stroke-linecap="butt" d="m14.342502 367.29135l175.58269 -351.1652l459.54333 0l175.58264 351.1652l-175.58264 351.1652l-459.54333 0z" fill-rule="evenodd"/><path fill="#000000" fill-opacity="0.0" d="m124.7965 77.917046l294.8976 0l0 338.3937l-294.8976 0z" fill-rule="evenodd"/><path fill="#000000" d="m255.23222 356.22952q-32.859375 0 -52.5 -19.0625l18.1875 -31.96875q14.953125 14.078125 31.09375 14.078125q14.07814 0 22.281265 -8.5q8.21875 -8.515625 8.21875 -22.890625l0 -130.82812l41.65625 0l0 131.42188q0 32.265625 -18.1875 50.015625q-18.1875 17.734375 -50.750015 17.734375z" fill-rule="nonzero"/><path fill="#000000" fill-opacity="0.0" d="m566.45276 135.90683l-293.5118 462.77164" fill-rule="evenodd"/><path stroke="#000000" stroke-width="24.0" stroke-linejoin="round" stroke-linecap="butt" d="m566.45276 135.90683l-293.5118 462.77164" fill-rule="evenodd"/><path fill="#000000" fill-opacity="0.0" d="m419.70422 285.14798l294.89764 0l0 338.3937l-294.89764 0z" fill-rule="evenodd"/><path fill="#000000" d="m550.13995 563.46045q-32.859375 0 -52.5 -19.0625l18.1875 -31.96875q14.953125 14.078125 31.09375 14.078125q14.078125 0 22.28125 -8.5q8.21875 -8.515625 8.21875 -22.890625l0 -130.82812l41.65625 0l0 131.42188q0 32.265625 -18.1875 50.015625q-18.1875 17.734375 -50.75 17.734375z" fill-rule="nonzero"/></g></svg>